<svg xmlns="http://www.w3.org/2000/svg" viewBox="0 0 24 24" width="32" height="32">
  <defs>
    <linearGradient id="gradient" x1="0%" y1="0%" x2="100%" y2="100%">
      <stop offset="0%" style="stop-color:#1976d2;stop-opacity:1" />
      <stop offset="100%" style="stop-color:#0d47a1;stop-opacity:1" />
    </linearGradient>
  </defs>
  <path d="M13.19 8.688L8.688 13.19c-.781.781-.781 2.05 0 2.831l1.482 1.482c.781.781 2.05.781 2.831 0l4.502-4.502c.781-.781.781-2.05 0-2.831L15.02 8.688c-.781-.781-2.05-.781-2.831 0z" fill="url(#gradient)"/>
  <path d="M4.929 15.536l-.707.707c-.391.391-.391 1.024 0 1.414l2.121 2.121c.391.391 1.024.391 1.414 0l.707-.707c.391-.391.391-1.024 0-1.414L6.343 15.536c-.391-.391-1.024-.391-1.414 0z" fill="url(#gradient)"/>
  <path d="M19.071 8.464l.707-.707c.391-.391.391-1.024 0-1.414L17.657 4.222c-.391-.391-1.024-.391-1.414 0l-.707.707c-.391.391-.391 1.024 0 1.414l2.121 2.121c.391.391 1.024.391 1.414 0z" fill="url(#gradient)"/>
  <circle cx="12" cy="12" r="10" fill="none" stroke="url(#gradient)" stroke-width="1" opacity="0.3"/>
</svg>